<?xml version="1.0" standalone="no"?><!DOCTYPE svg PUBLIC "-//W3C//DTD SVG 1.1//EN" "http://www.w3.org/Graphics/SVG/1.1/DTD/svg11.dtd"><svg t="1712133516673" class="icon" viewBox="0 0 1137 1024" version="1.1" xmlns="http://www.w3.org/2000/svg" p-id="7440" xmlns:xlink="http://www.w3.org/1999/xlink" width="284.25" height="256"><path d="M1066.296889 883.968c-40.817778 59.960889-103.111111 99.584-175.758222 99.584H247.182222c-159.317333 0-268.856889-190.805333-211.143111-367.786667 66.673778-204.515556 200.163556-315.818667 316.814222-376.007111l0.284445-0.142222c93.582222-48.213333 195.754667-63.601778 294.826666-46.250667 44.856889 7.907556 88.32 22.186667 129.109334 42.439111a66.389333 66.389333 0 1 1 112.156444 70.741334c84.593778 66.304 165.262222 164.408889 212.48 309.276444 31.345778 96.256 13.226667 196.636444-35.413333 268.145778z" fill="#CEE0D7" p-id="7441"></path><path d="M1066.296889 883.968a193.706667 193.706667 0 0 1-36.608 3.441778H386.332444c-159.345778 0-268.856889-190.805333-211.143111-367.786667 40.675556-124.814222 106.24-214.926222 177.664-279.864889l0.284445-0.142222c93.582222-48.213333 195.754667-63.601778 294.826666-46.250667 44.856889 7.907556 88.32 22.186667 129.109334 42.439111a66.389333 66.389333 0 1 1 112.156444 70.741334c84.593778 66.304 165.262222 164.408889 212.48 309.276444 31.345778 96.256 13.226667 196.636444-35.413333 268.145778z" fill="#E8F3EE" p-id="7442"></path><path d="M848.384 753.521778c-20.849778 42.467556-59.392 72.305778-105.699556 72.305778H395.008c-86.101333 0-145.294222-103.111111-114.119111-198.769778 26.197333-80.384 71.509333-134.144 118.528-169.984a354.986667 354.986667 0 0 1 52.849778-33.308445c74.353778-38.314667 158.833778-38.314667 233.130666 0 63.118222 32.483556 135.338667 92.672 171.406223 203.264a169.301333 169.301333 0 0 1-8.419556 126.492445z" fill="#EEA450" p-id="7443"></path><path d="M848.384 753.521778a104.903111 104.903111 0 0 1-42.296889 8.846222H458.439111c-86.101333 0-145.294222-103.111111-114.119111-198.769778 13.880889-42.552889 33.109333-77.653333 55.096889-106.552889a354.986667 354.986667 0 0 1 52.849778-33.308444c74.353778-38.314667 158.833778-38.314667 233.130666 0 63.118222 32.483556 135.338667 92.672 171.406223 203.264a169.301333 169.301333 0 0 1-8.419556 126.520889z" fill="#F2CF5C" p-id="7444"></path><path d="M742.684444 836.096H394.979556c-38.883556 0-75.605333-19.854222-100.721778-54.471111-31.715556-43.662222-40.561778-104.106667-23.096889-157.696 16.924444-51.854222 43.093333-97.223111 77.767111-134.741333a355.072 355.072 0 0 1 98.645333-74.524445 261.802667 261.802667 0 0 1 242.517334 0c36.977778 18.915556 70.371556 44.117333 98.645333 74.524445 34.702222 37.546667 60.871111 82.915556 77.795556 134.741333 17.464889 53.589333 8.618667 114.005333-23.096889 157.696-25.144889 34.673778-61.866667 54.471111-100.750223 54.471111z m-173.852444-430.705778a243.854222 243.854222 0 0 0-111.872 27.477334c-81.351111 41.898667-137.301333 108.316444-166.343111 197.404444-15.473778 47.445333-7.736889 100.835556 20.195555 139.320889 21.560889 29.696 51.484444 46.051556 84.195556 46.051555H742.684444c32.739556 0 62.634667-16.384 84.195556-46.051555 27.904-38.485333 35.669333-91.875556 20.195556-139.320889-29.070222-89.088-85.020444-155.505778-166.343112-197.347556a243.854222 243.854222 0 0 0-111.900444-27.534222z" fill="#6D2F2E" p-id="7445"></path><path d="M492.032 572.529778a10.24 10.24 0 0 1-10.24-10.24v-21.447111a10.24 10.24 0 0 1 20.48 0v21.447111a10.24 10.24 0 0 1-10.24 10.24z m153.6 0a10.24 10.24 0 0 1-10.24-10.24v-21.447111a10.24 10.24 0 0 1 20.48 0v21.447111a10.24 10.24 0 0 1-10.24 10.24z m-57.514667 118.897778a32.426667 32.426667 0 0 1-17.351111-4.977778 32.597333 32.597333 0 0 1-49.92-27.591111 10.24 10.24 0 0 1 20.48 0 12.117333 12.117333 0 0 0 21.560889 7.623111 10.24 10.24 0 0 1 15.872 0 12.117333 12.117333 0 0 0 21.532445-7.623111 10.24 10.24 0 0 1 20.48 0c-0.028444 18.005333-14.648889 32.597333-32.654223 32.568889z" fill="#6D2F2E" p-id="7446"></path><path d="M890.510222 1004.088889H247.182222a215.210667 215.210667 0 0 1-106.410666-28.046222c-31.232-17.521778-58.510222-42.211556-81.180445-73.415111-28.245333-38.968889-47.416889-85.959111-55.381333-135.907556a338.147556 338.147556 0 0 1 12.373333-157.240889c31.374222-96.199111 79.872-180.252444 144.213333-249.856 51.484444-55.665778 113.038222-102.172444 182.983112-138.154667 69.944889-35.953778 144.355556-54.727111 220.871111-55.381333 70.826667-0.654222 140.003556 14.193778 205.824 44.060445a86.869333 86.869333 0 0 1 144.782222 91.221333c95.800889 79.303111 165.063111 182.897778 205.852444 308.167111 16.497778 50.688 20.764444 104.561778 12.401778 157.240889-7.964444 49.976889-27.107556 96.967111-55.352889 135.907555-22.641778 31.203556-49.976889 55.921778-81.180444 73.386667a215.267556 215.267556 0 0 1-106.467556 27.989333zM568.888889 207.189333a449.450667 449.450667 0 0 0-206.364445 50.602667c-150.072889 77.340444-253.44 199.907556-307.029333 364.344889-28.472889 87.324444-14.250667 185.543111 37.148445 256.398222 39.566222 54.584889 94.435556 84.593778 154.538666 84.593778h643.328c60.017778 0 114.944-30.008889 154.538667-84.593778 51.370667-70.798222 65.621333-169.045333 37.148444-256.398222-40.163556-123.221333-109.368889-223.971556-205.653333-299.52a20.48 20.48 0 0 1-4.096-27.875556 45.909333 45.909333 0 1 0-77.653333-48.924444 20.48 20.48 0 0 1-26.851556 8.362667A448.568889 448.568889 0 0 0 568.888889 207.217778z" fill="#6D2F2E" p-id="7447"></path><path d="M921.144889 100.835556a70.371556 70.371556 0 1 0 140.743111 0 70.371556 70.371556 0 0 0-140.743111 0z" fill="#F6CD61" p-id="7448"></path><path d="M991.516444 191.687111a90.851556 90.851556 0 1 1 0-181.731555 90.851556 90.851556 0 0 1 0 181.731555z m0-140.8a49.92 49.92 0 1 0 0 99.811556 49.92 49.92 0 0 0 0-99.754667V50.915556z" fill="#6D2F2E" p-id="7449"></path><path d="M419.470222 614.343111c0 15.075556 18.318222 27.306667 40.931556 27.306667 22.584889 0 40.931556-12.231111 40.931555-27.306667s-18.346667-27.306667-40.96-27.306667c-22.584889 0-40.903111 12.231111-40.903111 27.306667zM638.435556 614.343111c0 15.075556 18.318222 27.306667 40.931555 27.306667 22.584889 0 40.903111-12.231111 40.903111-27.306667s-18.318222-27.306667-40.903111-27.306667c-22.613333 0-40.96 12.231111-40.96 27.306667z" fill="#E65257" p-id="7450"></path><path d="M725.504 306.915556a10.126222 10.126222 0 0 1-4.494222-1.052445c-84.565333-41.329778-198.456889-35.84-199.594667-35.811555a10.24 10.24 0 1 1-1.080889-20.48c4.864-0.227556 120.32-5.745778 209.635556 37.888a10.24 10.24 0 0 1-4.465778 19.427555z m-5.888 205.141333a10.211556 10.211556 0 0 1-7.253333-2.986667c-34.673778-34.673778-113.720889-60.017778-114.602667-60.245333a10.24 10.24 0 1 1 6.200889-19.512889c3.413333 1.109333 84.679111 27.136 122.766222 65.28a10.24 10.24 0 0 1-7.224889 17.464889h0.113778z m38.883556 45.027555a10.24 10.24 0 0 1-7.736889-3.498666l-18.403556-21.162667a10.24 10.24 0 0 1 15.416889-13.425778l18.432 21.134223a10.24 10.24 0 0 1-7.708444 16.952888z" fill="#FFFFFF" p-id="7451"></path></svg>