<?xml version="1.0" standalone="no"?><!DOCTYPE svg PUBLIC "-//W3C//DTD SVG 1.1//EN" "http://www.w3.org/Graphics/SVG/1.1/DTD/svg11.dtd"><svg t="1712132269049" class="icon" viewBox="0 0 1299 1024" version="1.1" xmlns="http://www.w3.org/2000/svg" p-id="1851" xmlns:xlink="http://www.w3.org/1999/xlink" width="253.7109375" height="200"><path d="M1291.772352 333.928644c20.294788 267.961414 26.174145 626.481702-674.234452 685.657803C-17.547996 1073.234275-8.844241 624.160352 3.532802 392.565017 15.909845 160.964443 340.03432 106.89741 687.429942 125.468215c347.390382 18.570805 586.8301-22.810021 604.34241 208.460429z" fill="#B89674" p-id="1852"></path><path d="M3.532802 392.565017c-8.651354 161.850015-15.437244 429.858589 197.959331 558.329364l1.294297 0.01572c363.19967 0 657.628673-233.434599 657.628673-521.386876 0-112.409963-44.870712-216.509175-121.187078-301.660299a3646.553613 3646.553613 0 0 1-51.803323-2.394711C340.03432 106.89741 15.909845 160.969683 3.532802 392.565017z" fill="#D6AF87" p-id="1853"></path><path d="M1291.772352 333.933884c-8.190228-108.212667-64.976857-156.730467-158.674532-179.624329 50.231302 76.866574 78.407154 163.123351 78.407154 254.253393 0 322.683456-353.081097 584.267706-788.630401 584.267706-55.544733 0-109.732287-4.275896-162.028177-12.366563 87.325752 35.62199 203.152239 52.091527 356.691504 39.127596 700.408597-59.181341 694.52924-417.701629 674.234452-685.657803z" fill="#9E8164" p-id="1854"></path><path d="M3.532802 392.565017s-55.025966 317.873072 269.355273 451.416234c324.381238 133.537921 318.921086-42.575562 482.893328 38.959914 163.977483 81.540715 196.40303-156.374142 289.288496-102.516712 92.890705 53.85743 307.529176-244.239621 242.127873-518.295236C1221.80171-11.931637 154.520154-205.174906 3.532802 392.565017z" fill="#754444" p-id="1855"></path><path d="M94.296039 382.724168z m898.032564 124.40448c77.689265-174.551942 190.607514-155.918256 189.962985-253.409742a362.717584 362.717584 0 0 0-3.657568-17.360349C1123.539934 5.475872 224.375515-157.322595 97.172837 346.258527c0 0-1.446259 8.426031-2.326591 22.867661-57.336836 81.221071 69.320874 157.857082 238.423145 199.683314 101.463458 25.094691 167.608851-12.937731 319.665176 31.173171 125.279572 36.345119 270.361366 10.322936 339.394036-92.854025z" fill="#915555" opacity=".52" p-id="1856"></path><path d="M352.987771 273.453006z m565.497778-67.051924a201.637859 201.637859 0 0 0-1.902145-9.023399c-28.636978-120.002823-495.988261-204.624699-562.107453 57.116753 0 0-0.75457 4.385938-1.205216 11.884477 28.767979 76.903254 149.457251 128.979061 290.074505 119.987103 154.498198-9.87229 275.737677-89.809544 275.140309-179.964934z" fill="#663B3B" opacity=".58" p-id="1857"></path><path d="M444.361779 289.739131a107.725341 192.944585 86.422 1 0 385.13698-24.082301 107.725341 192.944585 86.422 1 0-385.13698 24.082301Z" fill="#D5AE86" p-id="1858"></path><path d="M1291.536549 282.712209c0.675969 101.60494-66.407396 197.524405-176.941413 271.346498-113.447496 75.766159-248.939963 218.683804-451.390034 139.668802-102.652954-40.065568-214.61227-2.29515-307.309093-24.654525-220.900353 0-311.936074-133.889006-355.129963-249.369649-4.826104 79.680491 5.166708 314.372706 272.116789 424.277916 324.381238 133.537921 318.921086-42.575562 482.893328 38.959914 163.977483 81.540715 196.40303-156.374142 289.288496-102.516712 90.564114 52.510733 296.828955-229.556948 246.47189-497.712244z" fill="#5C3535" p-id="1859"></path><path d="M631.041558 236.395238c87.598235-5.475872 163.537317 22.574218 189.690502 65.815268 6.413845-11.669634 9.563126-23.983796 8.777116-36.570443-3.709969-59.375223-92.943106-102.123707-199.295549-95.468819-106.352443 6.654888-189.5595 60.182194-185.844291 119.557417 0.655009 10.469658 4.019133 20.404829 9.615527 29.658791 23.847555-43.387772 93.25227-77.746905 177.056695-82.992214z" fill="#C29A75" p-id="1860"></path><path d="M0.226319 432.18518a347.448022 347.448022 0 0 0 12.225081 13.66086C8.081182 437.268047 4.083009 428.585252 0.766046 419.708575a440.784133 440.784133 0 0 0-0.539727 12.476605z m1293.359097-137.619935a403.191878 403.191878 0 0 0-2.054107-11.853036 228.042568 228.042568 0 0 1-0.974653 22.249333 241.567186 241.567186 0 0 0 3.02876-10.396297z m-3.982452 173.65065c-49.235689 171.774705-173.530129 298.233293-240.32529 260.588637-97.78493-55.099327-128.937141 183.140415-301.403535 99.456512-172.466395-83.678664-164.711092 93.021707-505.556628-44.68207-89.432259-36.135517-151.65808-84.684757-194.846729-136.650522 38.283945 73.953095 106.1638 147.953351 225.422533 197.052799 324.381238 133.537921 318.921086-42.575562 482.893328 38.959914 163.977483 81.540715 196.40303-156.374142 289.288496-102.516712 69.425676 40.264691 206.877928-116.177572 244.527825-312.208558z" fill="#3D2323" p-id="1861"></path><path d="M1178.63402 236.369037c-5.680235-23.805634-20.357668-46.888138-42.219237-68.592504 11.428591 15.012798 19.309655 30.570563 23.072025 46.468933 1.336218 5.596394 2.478553 11.218988 3.521326 16.841582 0.539727 94.619928-108.652833 76.641251-183.947386 246.136526-66.863282 100.195361-207.197573 125.599216-328.31129 90.443593-147.020619-42.680363-211.022823-5.701195-309.132637-29.967955C178.110945 497.261598 55.69245 422.999339 111.216222 344.115338c0.869851-14.017185 2.27419-22.202173 2.27419-22.202172 11.255668-44.566788 28.741779-83.746785 51.211196-118.016837-30.3662 39.976487-53.584947 87.16331-67.528771 142.367438 0 0-1.446259 8.426031-2.326591 22.867661-57.336836 81.221071 69.320874 157.851842 238.423145 199.678074 101.463458 25.094691 167.608851-12.937731 319.670416 31.173171 125.269092 36.345119 270.356126 10.328176 339.388796-92.848785 77.689265-174.551942 190.607514-155.918256 189.962985-253.409742a359.825066 359.825066 0 0 0-3.657568-17.355109z" fill="#B88484" opacity=".25" p-id="1862"></path></svg>