<?xml version="1.0" standalone="no"?><!DOCTYPE svg PUBLIC "-//W3C//DTD SVG 1.1//EN" "http://www.w3.org/Graphics/SVG/1.1/DTD/svg11.dtd"><svg t="1712132923780" class="icon" viewBox="0 0 1024 1024" version="1.1" xmlns="http://www.w3.org/2000/svg" p-id="2061" width="256" height="256" xmlns:xlink="http://www.w3.org/1999/xlink"><path d="M325.853861 953.004591h665.131987v16.880559H325.853861zM325.853861 943.378453h665.131987v9.626138H325.853861z" fill="#FFD600" opacity=".8" p-id="2062"></path><path d="M325.853861 933.764974h665.131987v9.609258H325.853861z" fill="#FED600" opacity=".8" p-id="2063"></path><path d="M325.853861 924.155717h665.131987v9.609257H325.853861z" fill="#FDD500" opacity=".8" p-id="2064"></path><path d="M325.853861 914.529578h665.131987v9.626139H325.853861z" fill="#FCD500" opacity=".8" p-id="2065"></path><path d="M325.853861 904.9161h665.131987v9.609258H325.853861z" fill="#FBD400" opacity=".8" p-id="2066"></path><path d="M325.853861 895.289962h665.131987v9.626138H325.853861z" fill="#FAD400" opacity=".8" p-id="2067"></path><path d="M325.853861 885.680704h665.131987v9.609258H325.853861z" fill="#F9D300" opacity=".8" p-id="2068"></path><path d="M325.853861 876.054565h665.131987v9.626139H325.853861z" fill="#F8D300" opacity=".8" p-id="2069"></path><path d="M325.853861 866.441087h665.131987v9.609258H325.853861z" fill="#F7D200" opacity=".8" p-id="2070"></path><path d="M325.853861 856.831829h665.131987v9.609258H325.853861z" fill="#F6D200" opacity=".8" p-id="2071"></path><path d="M325.853861 847.205691h665.131987v9.626138H325.853861z" fill="#F5D100" opacity=".8" p-id="2072"></path><path d="M325.853861 837.575332h665.131987v9.626138H325.853861z" fill="#F4D100" opacity=".8" p-id="2073"></path><path d="M325.853861 827.966074h665.131987v9.609258H325.853861z" fill="#F3D100" opacity=".8" p-id="2074"></path><path d="M325.853861 818.356816h665.131987v9.609258H325.853861z" fill="#F2D000" opacity=".8" p-id="2075"></path><path d="M325.853861 808.726457h665.131987v9.626139H325.853861z" fill="#F1D000" opacity=".8" p-id="2076"></path><path d="M325.853861 799.100319h665.131987v9.626138H325.853861z" fill="#F0CF00" opacity=".8" p-id="2077"></path><path d="M325.853861 789.491061h665.131987v9.609258H325.853861z" fill="#EFCF00" opacity=".8" p-id="2078"></path><path d="M325.853861 779.881803h665.131987v9.609258H325.853861z" fill="#EECE00" opacity=".8" p-id="2079"></path><path d="M325.853861 770.251444h665.131987v9.626139H325.853861z" fill="#EDCE00" opacity=".8" p-id="2080"></path><path d="M325.853861 760.642187h665.131987v9.609257H325.853861z" fill="#ECCD00" opacity=".8" p-id="2081"></path><path d="M325.853861 751.016048h665.131987v9.626139H325.853861z" fill="#EBCD00" opacity=".8" p-id="2082"></path><path d="M325.853861 741.40257h665.131987v9.609258H325.853861z" fill="#EACD00" opacity=".8" p-id="2083"></path><path d="M325.853861 731.776432h665.131987v9.626138H325.853861z" fill="#E8CC00" opacity=".8" p-id="2084"></path><path d="M325.853861 722.167174h665.131987v9.609258H325.853861z" fill="#E7CC00" opacity=".8" p-id="2085"></path><path d="M325.853861 712.553696h665.131987v9.609257H325.853861z" fill="#E6CB00" opacity=".8" p-id="2086"></path><path d="M325.853861 702.927557h665.131987v9.626139H325.853861z" fill="#E5CB00" opacity=".8" p-id="2087"></path><path d="M325.853861 693.301419h665.131987v9.626138H325.853861z" fill="#E4CA00" opacity=".8" p-id="2088"></path><path d="M325.853861 683.692161h665.131987v9.609258H325.853861z" fill="#E3CA00" opacity=".8" p-id="2089"></path><path d="M325.853861 674.078683h665.131987v9.609257H325.853861z" fill="#E2C900" opacity=".8" p-id="2090"></path><path d="M325.853861 664.452544h665.131987v9.626139H325.853861z" fill="#E1C900" opacity=".8" p-id="2091"></path><path d="M325.853861 654.843286h665.131987v9.609258H325.853861z" fill="#E0C800" opacity=".8" p-id="2092"></path><path d="M325.853861 645.212927h665.131987v9.626139H325.853861z" fill="#DFC800" opacity=".8" p-id="2093"></path><path d="M325.853861 635.60367h665.131987v9.609257H325.853861z" fill="#DEC800" opacity=".8" p-id="2094"></path><path d="M325.853861 625.977531h665.131987v9.626139H325.853861z" fill="#DDC700" opacity=".8" p-id="2095"></path><path d="M325.853861 616.364053h665.131987v9.609258H325.853861z" fill="#DCC700" opacity=".8" p-id="2096"></path><path d="M325.853861 606.754795h665.131987v9.609258H325.853861z" fill="#DBC600" opacity=".8" p-id="2097"></path><path d="M325.853861 597.128657h665.131987v9.626138H325.853861z" fill="#DAC600" opacity=".8" p-id="2098"></path><path d="M325.853861 587.502518h665.131987v9.626139H325.853861z" fill="#D9C500" opacity=".8" p-id="2099"></path><path d="M325.853861 577.88904h665.131987v9.609258H325.853861z" fill="#D8C500" opacity=".8" p-id="2100"></path><path d="M325.853861 568.279782h665.131987v9.609258H325.853861z" fill="#D7C400" opacity=".8" p-id="2101"></path><path d="M325.853861 558.653644h665.131987v9.626138H325.853861z" fill="#D6C400" opacity=".8" p-id="2102"></path><path d="M325.853861 549.023285h665.131987v9.626138H325.853861z" fill="#D5C300" opacity=".8" p-id="2103"></path><path d="M325.853861 539.414027h665.131987v9.609258H325.853861zM325.853861 466.66726h665.131987v72.746767H325.853861z" fill="#D4C300" opacity=".8" p-id="2104"></path><path d="M675.454448 236.302498c-207.571788-62.420085-392.359042 4.372065-471.444458 219.41772-38.07832 103.06425-15.610296 233.778855-11.753089 392.435004 2.194473 17.386975 4.380505 34.74441 6.553877 52.084963a1182.639269 1182.639269 0 0 0-89.298155 30.726837l-1.747137-47.109419c-6.515896-185.711464-29.604279-342.586715 16.9312-466.203045 96.544134-261.167561 349.900217-332.517462 575.513101-249.35117" fill="#A6A6C9" p-id="2105"></path><path d="M109.512623 962.618069a31.659487 31.659487 0 0 1-31.629946-30.477848l-1.747138-47.105199c-1.371545-39.019411-3.477395-76.798101-5.519943-113.34029-7.828359-140.298542-14.589023-261.467191 24.45571-365.185562 48.66243-131.638815 137.745357-225.815451 257.555121-272.169465 109.158132-42.235157 236.488184-40.720127 358.526182 4.270781a31.651047 31.651047 0 1 1-21.894084 59.394245c-107.579799-39.656652-219.016806-41.298286-313.788482-4.629493-102.389028 39.614451-178.841077 120.966082-221.093115 235.260124-34.406798 91.399784-27.987966 206.390149-20.560521 339.539774 2.055208 36.8587 4.182158 74.975001 5.574805 114.581011l0.126604 3.430973a1208.67753 1208.67753 0 0 1 24.582313-8.263033l-3.253727-25.797714a31.199492 31.199492 0 0 1-0.240548-3.194645c-0.970632-39.968942-3.135564-78.089464-5.228753-114.956604-6.288008-110.681602-11.715108-206.263544 18.935766-289.214609 40.850952-111.078295 111.597372-191.248288 204.579709-231.803829 87.787345-38.285107 193.480741-40.694806 305.673153-6.95479a31.651047 31.651047 0 1 1-18.235223 60.618085c-97.63293-29.359511-188.277309-27.848701-262.133973 4.363625C326.330737 304.943069 268.970599 370.777248 233.707112 466.6546c-26.097343 70.632477-21.012075 160.116318-15.1292 263.733406 2.097409 36.8798 4.258121 75.004542 5.275174 115.399718 2.12695 16.863678 4.24546 33.702035 6.355531 50.527731a31.642607 31.642607 0 0 1-22.311879 34.250654 1154.934052 1154.934052 0 0 0-86.905335 29.903909 31.790312 31.790312 0 0 1-11.47878 2.148051z" fill="#5A5A7D" p-id="2106"></path><path d="M470.115114 969.88515h386.391764v16.880558h-386.391764zM470.115114 960.259011h386.391764v9.626139h-386.391764z" fill="#FFD600" p-id="2107"></path><path d="M470.115114 950.645533h386.391764v9.609258h-386.391764z" fill="#FED600" p-id="2108"></path><path d="M470.115114 941.036275h386.391764v9.609258h-386.391764z" fill="#FDD500" p-id="2109"></path><path d="M470.115114 931.410137h386.391764v9.626138h-386.391764z" fill="#FCD500" p-id="2110"></path><path d="M470.115114 921.796659h386.391764v9.609257h-386.391764z" fill="#FBD400" p-id="2111"></path><path d="M470.115114 912.17052h386.391764v9.626139h-386.391764z" fill="#FAD400" p-id="2112"></path><path d="M470.115114 902.561262h386.391764v9.609258h-386.391764z" fill="#F9D300" p-id="2113"></path><path d="M470.115114 892.935124h386.391764v9.626138h-386.391764z" fill="#F8D300" p-id="2114"></path><path d="M470.115114 883.321646h386.391764v9.609257h-386.391764z" fill="#F7D200" p-id="2115"></path><path d="M470.115114 873.712388h386.391764v9.609258h-386.391764z" fill="#F6D200" p-id="2116"></path><path d="M470.115114 864.086249h386.391764v9.626139h-386.391764z" fill="#F5D100" p-id="2117"></path><path d="M470.115114 854.45589h386.391764v9.626139h-386.391764z" fill="#F4D100" p-id="2118"></path><path d="M470.115114 844.846633h386.391764v9.609257h-386.391764z" fill="#F3D100" p-id="2119"></path><path d="M470.115114 835.237375h386.391764v9.609258h-386.391764z" fill="#F2D000" p-id="2120"></path><path d="M470.115114 825.607016h386.391764v9.626138h-386.391764z" fill="#F1D000" p-id="2121"></path><path d="M470.115114 815.980877h386.391764v9.626139h-386.391764z" fill="#F0CF00" p-id="2122"></path><path d="M470.115114 806.37162h386.391764v9.609257h-386.391764z" fill="#EFCF00" p-id="2123"></path><path d="M470.115114 796.762362h386.391764v9.609258h-386.391764z" fill="#EECE00" p-id="2124"></path><path d="M470.115114 787.132003h386.391764v9.626138h-386.391764z" fill="#EDCE00" p-id="2125"></path><path d="M470.115114 777.522745h386.391764v9.609258h-386.391764z" fill="#ECCD00" p-id="2126"></path><path d="M470.115114 767.896607h386.391764v9.626138h-386.391764z" fill="#EBCD00" p-id="2127"></path><path d="M470.115114 758.283129h386.391764v9.609257h-386.391764z" fill="#EACD00" p-id="2128"></path><path d="M470.115114 748.65699h386.391764v9.626139h-386.391764z" fill="#E8CC00" p-id="2129"></path><path d="M470.115114 739.047732h386.391764v9.609258h-386.391764z" fill="#E7CC00" p-id="2130"></path><path d="M470.115114 729.434254h386.391764v9.609258h-386.391764z" fill="#E6CB00" p-id="2131"></path><path d="M470.115114 719.808116h386.391764v9.626138h-386.391764z" fill="#E5CB00" p-id="2132"></path><path d="M470.115114 710.181977h386.391764v9.626139h-386.391764z" fill="#E4CA00" p-id="2133"></path><path d="M470.115114 700.572719h386.391764v9.609258h-386.391764z" fill="#E3CA00" p-id="2134"></path><path d="M470.115114 690.959241h386.391764v9.609258h-386.391764z" fill="#E2C900" p-id="2135"></path><path d="M470.115114 681.333103h386.391764v9.626138h-386.391764z" fill="#E1C900" p-id="2136"></path><path d="M470.115114 671.723845h386.391764v9.609258h-386.391764z" fill="#E0C800" p-id="2137"></path><path d="M470.115114 662.093486h386.391764v9.626138h-386.391764z" fill="#DFC800" p-id="2138"></path><path d="M470.115114 652.484228h386.391764v9.609258h-386.391764z" fill="#DEC800" p-id="2139"></path><path d="M470.115114 642.85809h386.391764v9.626138h-386.391764z" fill="#DDC700" p-id="2140"></path><path d="M470.115114 633.244611h386.391764v9.609258h-386.391764z" fill="#DCC700" p-id="2141"></path><path d="M470.115114 623.635354h386.391764v9.609257h-386.391764z" fill="#DBC600" p-id="2142"></path><path d="M470.115114 614.009215h386.391764v9.626139h-386.391764z" fill="#DAC600" p-id="2143"></path><path d="M470.115114 604.383077h386.391764v9.626138h-386.391764z" fill="#D9C500" p-id="2144"></path><path d="M470.115114 594.769599h386.391764v9.609257h-386.391764z" fill="#D8C500" p-id="2145"></path><path d="M470.115114 585.160341h386.391764v9.609258h-386.391764z" fill="#D7C400" p-id="2146"></path><path d="M470.115114 575.534202h386.391764v9.626139h-386.391764z" fill="#D6C400" p-id="2147"></path><path d="M470.115114 565.903843h386.391764v9.626139h-386.391764z" fill="#D5C300" p-id="2148"></path><path d="M470.115114 556.294586h386.391764v9.609257h-386.391764z" fill="#D4C300" p-id="2149"></path><path d="M470.115114 483.547819h386.391764v72.746767h-386.391764z" fill="#D4C300" p-id="2150"></path><path d="M397.283945 630.742069l0.105503 0.405133c-59.377365-190.40426 59.377365-367.966635 258.044658-372.148793 198.654633 4.182158 317.413582 181.744533 258.036217 372.148793" fill="#60A8C9" p-id="2151"></path><path d="M943.686523 640.566554l-60.4324-18.842924c26.211287-84.052521 14.854891-168.936409-31.161511-232.888405-44.189082-61.411472-114.011292-96.265605-196.658506-98.181548-82.655655 1.920164-152.477865 36.770077-196.671167 98.185768-46.016402 63.951996-57.372798 148.831664-31.161511 232.884185l-22.565087 7.034973-7.748176 2.004566 7.326162-1.869521-2.641807 0.822927 25.987619-6.777544-60.786891 17.631743c-32.187005-103.220395-17.53468-208.449577 40.209491-288.699752 55.393553-76.988007 145.565276-122.371389 247.384585-124.51522l0.666782-0.01266 0.666782 0.01266c101.815089 2.143831 191.974152 47.527212 247.371924 124.511 57.748391 80.250175 72.404936 185.479357 40.213711 288.699752z" fill="#5A5A7D" p-id="2152"></path><path d="M655.438326 267.147499c45.615489 0 88.817059 9.799164 127.528399 28.10613v-128.250044c0-62.331462-50.996167-113.323409-113.327629-113.323409h-28.4142c-62.327242 0-113.32763 50.991947-113.32763 113.323409v128.245824c38.711341-18.298525 81.91713-28.10191 127.54106-28.10191z" fill="#60A8C9" p-id="2153"></path><path d="M814.613552 345.236962l-45.180815-21.366566c-35.174864-16.63579-73.531713-25.067629-113.998631-25.06763-40.475359 0-78.832208 8.436059-114.011293 25.063409l-45.180814 21.362347v-178.216496c0-79.937885 65.036572-144.974457 144.978676-144.974457h28.4142c79.937885 0 144.978677 65.036572 144.978677 144.974457v178.224936z m-159.175226-109.74051c33.166077 0 65.251799 4.629493 95.877352 13.804076v-82.292722c0-45.03311-36.639252-81.672362-81.676582-81.672363h-28.4142c-45.03733 0-81.676582 36.639252-81.676583 81.672363v82.292722c30.625553-9.170363 62.719715-13.804077 95.890013-13.804076z" fill="#5A5A7D" p-id="2154"></path><path d="M497.259052 543.74811a31.651047 31.651047 0 0 1-31.651047-31.651047c0-85.862961 70.948987-155.718932 158.158173-155.718932 17.484038 0 31.651047 14.171229 31.651047 31.651047s-14.167009 31.651047-31.651047 31.651048c-52.304411 0-94.856078 41.458652-94.856079 92.416837 0 17.484038-14.167009 31.651047-31.651047 31.651047z" fill="#FFFFFF" opacity=".3" p-id="2155"></path><path d="M907.722493 662.794029H399.453096c-17.479818 0-31.651047-14.167009-31.651047-31.651047s14.171229-31.651047 31.651047-31.651047h508.265177c17.484038 0 31.651047 14.167009 31.651047 31.651047s-14.167009 31.651047-31.646827 31.651047z" fill="#5A5A7D" p-id="2156"></path><path d="M580.851578 929.051079c0-54.494663-113.188365-98.675305-252.815905-98.675305s-252.815905 44.180642-252.815904 98.675305v40.834071h505.631809v-40.834071z" fill="#A6A6C9" p-id="2157"></path><path d="M580.851578 1001.536197H75.215549a31.651047 31.651047 0 0 1-31.651048-31.651047v-40.834071c0-85.559111 143.104935-130.326352 284.466952-130.326352s284.466952 44.763021 284.466952 130.326352v40.834071a31.642607 31.642607 0 0 1-31.646827 31.651047z m-473.984982-63.302095h442.329715v-9.183023c0-20.045663-75.24931-67.024258-221.164858-67.024258s-221.164857 46.978594-221.164857 67.024258v9.183023z" fill="#5A5A7D" p-id="2158"></path><path d="M694.124346 93.075179c34.613585 5.878655 61.217345 36.115955 61.217345 72.337414v83.11987c-18.935767-8.950916-39.538488-14.753608-61.217345-17.066245V93.075179z" fill="#5A5A7D" opacity=".2" p-id="2159"></path><path d="M528.184235 577.369963c-39.28106-125.950067 39.28106-243.404993 170.683548-246.173405 131.419368 2.768412 209.973047 120.219118 170.696207 246.173405l0.067523-0.265869" fill="#60A8C9" p-id="2160"></path></svg>